<svg width="32" height="32" viewBox="0 0 32 32" fill="none" xmlns="http://www.w3.org/2000/svg">
  <rect width="32" height="32" rx="7" fill="#FDF6EF"/>
  <!-- steam -->
  <path d="M13 5c1.1 1 1.1 2.1 0 3.1M17 4c1.1 1 1.1 2.1 0 3.1" stroke="#C86B34" stroke-width="1.4" stroke-linecap="round" opacity="0.75"/>
  <!-- cup bowl -->
  <path d="M6 11h13v3A6.5 6.5 0 0 1 12.5 20.5 6.5 6.5 0 0 1 6 14v-3Z" fill="#8F3E19"/>
  <!-- tea surface -->
  <ellipse cx="12.5" cy="11" rx="6.5" ry="1.5" fill="#C86B34"/>
  <!-- handle -->
  <path d="M19 12h2a3.2 3.2 0 0 1 0 6.4h-1" stroke="#8F3E19" stroke-width="1.7" stroke-linecap="round" fill="none"/>
  <!-- spilled tea -->
  <path d="M4 25.5c3.4-1.4 7-.5 10 .2 3 .7 6.3.5 8.3-.9.7 2.2-1.5 3.6-5 3.9-2.7.2-4.7-.6-7.2-.8-2.2-.2-4.3.4-5.7-.4-.9-.5-1.4-1.3-1.4-2Z" fill="#C86B34"/>
</svg>
